<?xml version="1.0" encoding="UTF-8"?>
<svg version="1.1" xmlns="http://www.w3.org/2000/svg" width="225" height="225">
<path d="M0 0 C74.25 0 148.5 0 225 0 C225 74.25 225 148.5 225 225 C150.75 225 76.5 225 0 225 C0 150.75 0 76.5 0 0 Z " fill="#FEFEFE" transform="translate(0,0)"/>
<path d="M0 0 C3.63 0 7.26 0 11 0 C11.33 3.96 11.66 7.92 12 12 C12.62003906 11.13375 13.24007812 10.2675 13.87890625 9.375 C20.60771392 0.68217075 20.60771392 0.68217075 24.99316406 -0.56835938 C29.37744751 -1.05069239 33.64009402 -0.63545188 38 0 C34.19524578 4.56030824 30.25030379 8.85089392 26 13 C27.5029732 18.67689275 30.39232809 23.00041351 33.625 27.8125 C34.63987226 29.33861416 35.65299512 30.86589366 36.6640625 32.39453125 C37.33622803 33.39770386 37.33622803 33.39770386 38.02197266 34.42114258 C39 36 39 36 39 37 C34.38 37 29.76 37 25 37 C23.82823482 34.87767021 22.66245215 32.75242209 21.5 30.625 C21.16613281 30.02171875 20.83226562 29.4184375 20.48828125 28.796875 C18 24.2265625 18 24.2265625 18 22 C13.44617084 24.83426638 13.44617084 24.83426638 11.37890625 29.55859375 C11.15088139 32.03178644 11.06620799 34.51720038 11 37 C7.37 37 3.74 37 0 37 C0 24.79 0 12.58 0 0 Z " fill="#020202" transform="translate(125,94)"/>
<path d="M0 0 C3.75587852 1.91088556 5.01722882 2.94932206 6.5625 6.8125 C6.5625 7.8025 6.5625 8.7925 6.5625 9.8125 C2.9325 10.1425 -0.6975 10.4725 -4.4375 10.8125 C-5.0975 9.4925 -5.7575 8.1725 -6.4375 6.8125 C-8.4175 6.8125 -10.3975 6.8125 -12.4375 6.8125 C-12.7675 8.1325 -13.0975 9.4525 -13.4375 10.8125 C-12.56867188 10.98265625 -11.69984375 11.1528125 -10.8046875 11.328125 C-3.20475214 12.9263217 2.01748711 14.26748711 7.5625 19.8125 C8.26881226 24.45280726 8.20765635 28.54906882 6.0625 32.75 C0.89843764 37.01035145 -4.62659966 38.3533876 -11.265625 38.1015625 C-15.78189866 37.50047572 -19.17696007 35.774491 -22.8125 33 C-24.82156309 30.29549199 -25.13573496 28.13191546 -25.4375 24.8125 C-21.76339215 23.63678549 -18.26820817 23.73883254 -14.4375 23.8125 C-14.23125 24.616875 -14.025 25.42125 -13.8125 26.25 C-13.35875 27.095625 -12.905 27.94125 -12.4375 28.8125 C-8.35690263 30.01906624 -8.35690263 30.01906624 -4.4375 28.8125 C-4.4375 27.1625 -4.4375 25.5125 -4.4375 23.8125 C-5.30632812 23.58175781 -6.17515625 23.35101563 -7.0703125 23.11328125 C-13.62591403 21.25806068 -18.70222501 19.81084582 -23.4375 14.8125 C-24.86412219 11.95925563 -24.74783868 9.97795451 -24.4375 6.8125 C-19.00026575 -2.17984896 -9.3175944 -3.00290796 0 0 Z " fill="#080808" transform="translate(110.4375,94.1875)"/>
<path d="M0 0 C0.97582031 0.00902344 1.95164063 0.01804687 2.95703125 0.02734375 C4.06111328 0.04474609 4.06111328 0.04474609 5.1875 0.0625 C2.35507578 1.95078282 0.20264041 2.78259589 -3 3.8125 C-14.24629529 7.87778352 -19.12472024 14.35168778 -24.1875 24.9375 C-26.1918911 34.95945548 -24.73938216 43.12686858 -19.8125 52.0625 C-16.56233813 56.89853174 -12.79095616 60.09913324 -7.8125 63.0625 C-10.8125 64.0625 -10.8125 64.0625 -12.8984375 63.2421875 C-17.50424666 60.61703347 -21.28258458 58.09668905 -24.8125 54.0625 C-25.51375 53.27875 -26.215 52.495 -26.9375 51.6875 C-32.3231604 44.14757544 -33.56542358 36.0975829 -32.8125 27.0625 C-30.83678093 17.99743603 -25.88763179 10.9632172 -18.8125 5.0625 C-12.72849507 1.22240564 -7.18819719 -0.08660479 0 0 Z " fill="#0C0D0C" transform="translate(93.8125,79.9375)"/>
<path d="M0 0 C0.66 0.33 1.32 0.66 2 1 C1.60167969 1.4125 1.20335938 1.825 0.79296875 2.25 C-5.35143187 8.94754618 -7.63917852 14.99031687 -7.34765625 24.12890625 C-6.37987228 32.12127947 -3.36980672 39.85810783 3 45 C12.26775691 51.18767153 19.94209562 51.94105392 30.75 50.5 C31.86375 50.2525 31.86375 50.2525 33 50 C29.13983889 54.31999222 24.16535344 55.57795287 18.5390625 56.328125 C10.06930101 56.70218387 3.10452687 54.03660485 -3.375 48.625 C-9.16098495 43.15397794 -12.52722367 37.47893362 -13.37109375 29.484375 C-13.54500243 19.70456913 -12.45629524 13.03289536 -5.88671875 5.61328125 C-3.97772396 3.67037892 -2.03584557 1.8085179 0 0 Z " fill="#101110" transform="translate(84,89)"/>
<path d="M0 0 C0.33 0.99 0.66 1.98 1 3 C0.525625 3.9075 0.05125 4.815 -0.4375 5.75 C-3.81999769 13.12572413 -3.10360976 22.99582038 -0.4375 30.5 C2.83717154 37.45433778 7.91164412 42.06092561 15 45 C15 45.99 15 46.98 15 48 C12 48 12 48 10.25 46.375 C9.5075 45.59125 8.765 44.8075 8 44 C7.47148438 43.61070312 6.94296875 43.22140625 6.3984375 42.8203125 C-0.2141985 37.89724869 -3.43444407 30.6966678 -6 23 C-6.74097261 15.01936055 -6.04466831 8.04126563 -2 1 C-1.34 0.67 -0.68 0.34 0 0 Z " fill="#CCCCCC" transform="translate(74,97)"/>
<path d="M0 0 C0.680625 0.70125 1.36125 1.4025 2.0625 2.125 C5.91491013 5.97741013 10.01090133 9.57192916 14.4375 12.75 C14.953125 13.1625 15.46875 13.575 16 14 C16 14.66 16 15.32 16 16 C13 16 13 16 11.25 14.375 C10.5075 13.59125 9.765 12.8075 9 12 C7.21320522 10.4656 5.40431392 8.96162958 3.5859375 7.46484375 C2 6 2 6 0 3 C0 2.01 0 1.02 0 0 Z " fill="#D9D9D9" transform="translate(73,129)"/>
<path d="M0 0 C1.39195915 4.17587745 -0.17676781 6.13474776 -2 10 C-2.99 10 -3.98 10 -5 10 C-4.55090939 8.51800098 -4.09043436 7.03944764 -3.625 5.5625 C-3.36976562 4.73878906 -3.11453125 3.91507812 -2.8515625 3.06640625 C-2 1 -2 1 0 0 Z " fill="#E4E4E4" transform="translate(74,97)"/>
</svg>
